<svg width="15" height="16" viewBox="0 0 15 16" fill="none" xmlns="http://www.w3.org/2000/svg">
<path d="M10.5846 10.1632H9.9263L9.69297 9.93825C10.5096 8.98825 11.0013 7.75492 11.0013 6.41325C11.0013 3.42158 8.5763 0.996582 5.58464 0.996582C2.59297 0.996582 0.167969 3.42158 0.167969 6.41325C0.167969 9.40492 2.59297 11.8299 5.58464 11.8299C6.9263 11.8299 8.15964 11.3382 9.10964 10.5216L9.33464 10.7549V11.4132L13.5013 15.5716L14.743 14.3299L10.5846 10.1632ZM5.58464 10.1632C3.50964 10.1632 1.83464 8.48825 1.83464 6.41325C1.83464 4.33825 3.50964 2.66325 5.58464 2.66325C7.65964 2.66325 9.33464 4.33825 9.33464 6.41325C9.33464 8.48825 7.65964 10.1632 5.58464 10.1632Z" fill="white"/>
</svg>
